<svg xmlns="http://www.w3.org/2000/svg" width="269.249" height="318.689" viewBox="0 0 269.249 318.689">
  <g id="Group_12" data-name="Group 12" transform="translate(-651.819 -306.327)">
    <g id="Group_7" data-name="Group 7" transform="translate(-1334.243 126.241)">
      <g id="Group_6" data-name="Group 6" transform="translate(1986.062 180.085)">
        <path id="Path_2429" data-name="Path 2429" d="M506.553,584.379c0,11-8.541,19.915-19.077,19.915S468.4,595.378,468.4,584.379c0-.249,0-.5.014-.744.193-11,8.893-19.744,19.427-19.539s18.914,9.287,18.717,20.283Z" transform="translate(-404.211 -363.573)" fill="#0af"/>
        <path id="Path_2431" data-name="Path 2431" d="M485.907,602.51l-5.495-7.326,1.3-.977,4.477,5.969,17.624-14.418,1.03,1.259Z" transform="translate(-409.36 -372.859)" fill="#fff"/>
        <rect id="Rectangle_256" data-name="Rectangle 256" width="269.249" height="1.143" transform="translate(0 317.546)" fill="#e6e6e6"/>
        <g id="Group_24" data-name="Group 24" transform="translate(150.7 0)">
          <path id="Path_552" data-name="Path 552" d="M708.241,390.839a8.122,8.122,0,0,1,1.135.633l36.085-15.4,1.287-9.506,14.419-.089-.852,21.8-47.629,12.6a8.541,8.541,0,0,1-.361.971,8.234,8.234,0,1,1-4.086-11.008Z" transform="translate(-696.635 -278.872)" fill="#a0616a"/>
          <path id="Path_553" data-name="Path 553" d="M807.835,726.336h-9.864l-4.692-38.045h14.557Z" transform="translate(-738.058 -416.806)" fill="#a0616a"/>
          <path id="Path_554" data-name="Path 554" d="M780.176,749.94H799.2v11.973h-31a11.977,11.977,0,0,1,11.977-11.977h0Z" transform="translate(-727.308 -443.228)" fill="#061551"/>
          <path id="Path_555" data-name="Path 555" d="M872.227,721.6l-9.815.966-8.4-37.4,14.487-1.423Z" transform="translate(-764.089 -414.855)" fill="#a0616a"/>
          <path id="Path_556" data-name="Path 556" d="M847.844,746.594l18.928-1.864,1.174,11.917L837.1,759.685a11.975,11.975,0,0,1,10.742-13.091Z" transform="translate(-756.815 -440.997)" fill="#061551"/>
          <circle id="Ellipse_84" data-name="Ellipse 84" cx="19.76" cy="19.76" r="19.76" transform="translate(52.762 7.819)" fill="#a0616a"/>
          <path id="Path_557" data-name="Path 557" d="M778.311,637.094a3.6,3.6,0,0,1-3.552-2.977c-5.1-28.335-21.793-121-22.193-123.572a1.125,1.125,0,0,1-.013-.178v-6.91a1.2,1.2,0,0,1,.225-.7l2.2-3.085a1.19,1.19,0,0,1,.921-.5c12.57-.589,53.731-2.316,55.719.168h0c2,2.494,1.287,10.063,1.126,11.553l.008.155L831.249,629.31a3.63,3.63,0,0,1-2.99,4.131l-11.55,1.9a3.637,3.637,0,0,1-4.043-2.488c-3.572-11.415-15.551-49.816-19.7-64.675a.4.4,0,0,0-.789.114c.207,14.165.708,50.3.885,62.784l.018,1.344a3.635,3.635,0,0,1-3.293,3.649l-11.137,1.009a3.368,3.368,0,0,1-.337.013Z" transform="translate(-720.602 -335.258)" fill="#061551"/>
          <path id="Path_99" data-name="Path 99" d="M781.08,308.229c-3.448,2.05-5.512,5.817-6.7,9.656a91.464,91.464,0,0,0-3.93,21.85l-1.252,22.2-15.492,58.869c13.428,11.361,21.172,8.778,39.246-.514s20.139,3.1,20.139,3.1L816.71,373.3l5.164-54.735a24.278,24.278,0,0,0-3.912-3.76,39.953,39.953,0,0,0-34.147-7.241Z" transform="translate(-721.099 -253.119)" fill="#0af"/>
          <path id="Path_558" data-name="Path 558" d="M784.276,408.927a8.474,8.474,0,0,1,1.207.563l35.681-17.861.592-9.675,14.718-1.015.788,22.056-47.682,15.77a8.447,8.447,0,1,1-5.3-9.841Z" transform="translate(-729.326 -285.071)" fill="#a0616a"/>
          <path id="Path_101" data-name="Path 101" d="M858.4,327.334c8.778,3.1,10.326,36.666,10.326,36.666C858.4,358.32,846,367.615,846,367.615s-2.582-8.779-5.68-20.139a19.736,19.736,0,0,1,4.13-18.59S849.62,324.234,858.4,327.334Z" transform="translate(-757.881 -261.638)" fill="#0af"/>
          <path id="Path_102" data-name="Path 102" d="M826.454,245.961c-2.462-1.97-5.821,1.609-5.821,1.609l-1.97-17.722s-12.309,1.475-20.189-.493-9.11,7.142-9.11,7.142a63.214,63.214,0,0,1-.246-11.08c.492-4.432,6.893-8.863,18.219-11.818s17.234,9.848,17.234,9.848C832.454,227.385,828.919,247.933,826.454,245.961Z" transform="translate(-736.216 -213.157)" fill="#061551"/>
        </g>
        <path id="Path_123" data-name="Path 123" d="M390.688,258.709a1.775,1.775,0,0,0,0,3.551H520.312a1.775,1.775,0,1,0,0-3.551Z" transform="translate(-370.142 -232.681)" fill="#ccc"/>
        <path id="Path_124" data-name="Path 124" d="M390.685,277.351a1.775,1.775,0,1,0-.008,3.551h81.949a1.775,1.775,0,1,0,0-3.551Z" transform="translate(-370.139 -240.672)" fill="#ccc"/>
        <path id="Path_2429-2" data-name="Path 2429" d="M604.833,229a7.474,7.474,0,1,1-14.934,0c0-.1,0-.194.005-.291a7.473,7.473,0,1,1,14.93.291Z" transform="translate(-456.288 -216.544)" fill="#0af"/>
        <path id="Path_2431-2" data-name="Path 2431" d="M596.752,236.1l-2.151-2.868.509-.382,1.752,2.336,6.9-5.643.4.493Z" transform="translate(-458.303 -220.179)" fill="#fff"/>
        <path id="Path_125" data-name="Path 125" d="M390.688,372.709a1.775,1.775,0,0,0,0,3.551H520.312a1.775,1.775,0,1,0,0-3.551Z" transform="translate(-370.142 -281.543)" fill="#ccc"/>
        <path id="Path_126" data-name="Path 126" d="M390.685,391.351a1.775,1.775,0,1,0-.008,3.551h81.949a1.775,1.775,0,1,0,0-3.551Z" transform="translate(-370.139 -289.534)" fill="#ccc"/>
        <path id="Path_2429-3" data-name="Path 2429" d="M603.833,343a7.474,7.474,0,1,1-14.934,0c0-.1,0-.194.005-.291a7.473,7.473,0,1,1,14.93.291Z" transform="translate(-455.859 -265.406)" fill="#0af"/>
        <path id="Path_2431-3" data-name="Path 2431" d="M595.752,350.1l-2.151-2.868.509-.382,1.752,2.336,6.9-5.643.4.493Z" transform="translate(-457.874 -269.041)" fill="#fff"/>
        <path id="Path_127" data-name="Path 127" d="M390.688,486.709a1.775,1.775,0,0,0,0,3.551H520.312a1.775,1.775,0,0,0,0-3.551Z" transform="translate(-370.142 -330.405)" fill="#ccc"/>
        <path id="Path_128" data-name="Path 128" d="M390.685,505.351a1.775,1.775,0,1,0-.008,3.551h81.949a1.775,1.775,0,1,0,0-3.551Z" transform="translate(-370.139 -338.395)" fill="#ccc"/>
        <path id="Path_2429-4" data-name="Path 2429" d="M603.833,457a7.474,7.474,0,1,1-14.934,0c0-.1,0-.194.005-.291a7.473,7.473,0,1,1,14.93.291Z" transform="translate(-455.859 -314.268)" fill="#0af"/>
        <path id="Path_2431-4" data-name="Path 2431" d="M595.752,464.1l-2.151-2.868.509-.382,1.752,2.336,6.9-5.643.4.493Z" transform="translate(-457.874 -317.903)" fill="#fff"/>
      </g>
    </g>
  </g>
</svg>
